<svg xmlns="http://www.w3.org/2000/svg" width="24" height="24" viewBox="0 0 24 24"><defs><style>.a,.b{fill:#273240;}.a{opacity:0;}</style></defs><g transform="translate(-176 -324)"><rect class="a" width="24" height="24" transform="translate(176 324)"/><g transform="translate(177.569 325.168)"><g transform="translate(1.431 1.832)"><path class="b" d="M14,6h2V7H14Z" transform="translate(-1.261 -0.504)"/><path class="b" d="M14,8h2V9H14Z" transform="translate(-1.261 -0.672)"/><path class="b" d="M14,10h2v1H14Z" transform="translate(-1.261 -0.84)"/><path class="b" d="M14,12h2v1H14Z" transform="translate(-1.261 -1.008)"/><path class="b" d="M14,16h2v1H14Z" transform="translate(-1.261 -1.344)"/><path class="b" d="M14,14h2v1H14Z" transform="translate(-1.261 -1.176)"/><path class="b" d="M4,6H8V7H4Z" transform="translate(0 -1)"/><path class="b" d="M4,8H8V9H4Z" transform="translate(0 -1.168)"/><path class="b" d="M4,10H8v1H4Z" transform="translate(0 -1.336)"/><path class="b" d="M4,12H8v1H4Z" transform="translate(0 -1.504)"/><path class="b" d="M4,16H8v1H4Z" transform="translate(0 -1.841)"/><path class="b" d="M4,14H8v1H4Z" transform="translate(0 -1.672)"/><path class="b" d="M16.945,17.4h-.458V5.038A1.822,1.822,0,0,0,15.3,3.4L10.991,1.959V.457A.459.459,0,0,0,10.4.018L2.119,2.5a1.768,1.768,0,0,0-1.2,1.618V17.4H.458a.458.458,0,1,0,0,.916H16.945a.458.458,0,1,0,0-.916ZM15.015,4.266a.907.907,0,0,1,.556.771V17.4h-4.58V2.925ZM1.832,4.122a.856.856,0,0,1,.551-.74l7.692-2.308V17.4H1.832Z" transform="translate(0 0.001)"/></g></g></g></svg>