<svg xmlns="http://www.w3.org/2000/svg" width="31.647" height="31.647" viewBox="0 0 31.647 31.647"><defs><style>.a{stroke:#000;}.b{fill:#fff;}.c{stroke:none;}.d{fill:none;}</style></defs><g transform="translate(31.647 31.647) rotate(180)"><g class="a" transform="translate(31.647 31.647) rotate(180)"><rect class="c" width="31.647" height="31.647"/><rect class="d" x="0.5" y="0.5" width="30.647" height="30.647"/></g></g><path class="b" d="M6.106,5.508,10.891.723a.424.424,0,0,0-.6-.6L5.507,4.909.723.124a.424.424,0,0,0-.6.6L4.908,5.508.124,10.293a.424.424,0,0,0,.6.6L5.508,6.107l4.784,4.785a.424.424,0,0,0,.6-.6L6.108,5.508Z" transform="translate(8 15.79) rotate(-45)"/></svg>